<?xml version="1.0" encoding="utf-8"?>
<!-- Generator: Adobe Illustrator 23.0.1, SVG Export Plug-In . SVG Version: 6.00 Build 0)  -->
<svg version="1.1" id="Layer_1" xmlns="http://www.w3.org/2000/svg" xmlns:xlink="http://www.w3.org/1999/xlink" x="0px" y="0px"
	 viewBox="0 0 238.1 112.6" style="enable-background:new 0 0 238.1 112.6;" xml:space="preserve">
<style type="text/css">
	.st0{clip-path:url(#SVGID_2_);fill:#CCAA68;}
</style>
<g>
	<defs>
		<rect id="SVGID_1_" x="2.4" y="3.5" width="233.7" height="104"/>
	</defs>
	<clipPath id="SVGID_2_">
		<use xlink:href="#SVGID_1_"  style="overflow:visible;"/>
	</clipPath>
	<path class="st0" d="M101.5,73.2c-13.9-13.9-13.9-36.3,0-50.2s36.3-13.9,50.2,0c4.2,4.2,7.1,9.1,8.8,14.4
		c-1.1-8.2-4.9-16.1-11.2-22.4c-15.4-15.4-40.4-15.4-55.8,0c-15.4,15.4-15.4,40.4,0,55.8c6.3,6.3,14.2,10,22.4,11.2
		C110.6,80.3,105.7,77.4,101.5,73.2"/>
	<path class="st0" d="M118.6,19.2c-14.5,7.4-20.2,25.2-12.7,39.6c7.4,14.5,25.2,20.2,39.6,12.7c4.4-2.2,7.9-5.4,10.6-9.2
		c-3,6.2-7.9,11.5-14.5,14.9c-16.1,8.3-35.8,1.9-44.1-14.1C89.3,47,95.6,27.3,111.7,19c6.6-3.4,13.8-4.3,20.5-3.1
		C127.6,15.9,122.9,16.9,118.6,19.2"/>
	<path class="st0" d="M151.9,31.7c5.5,11.9,0.3,26.1-11.6,31.6c-11.9,5.5-26.1,0.3-31.6-11.6c-1.7-3.6-2.3-7.4-2.2-11.1
		c-1.2,5.4-0.7,11.2,1.8,16.7c6.1,13.3,21.8,19,35.1,12.9c13.3-6.1,19-21.8,12.9-35.1c-2.5-5.4-6.6-9.6-11.5-12.2
		C147.8,25.1,150.3,28.1,151.9,31.7"/>
	<path class="st0" d="M8.3,102.7c0,1.5,0,2.8,0.1,3.5c0,0.5,0.1,0.8,0.6,0.9c0.2,0,0.6,0.1,0.7,0.1c0.1,0,0.1,0,0.1,0.1
		c0,0.1-0.1,0.1-0.3,0.1c-0.9,0-1.9,0-2,0c-0.1,0-1.1,0-1.6,0c-0.2,0-0.3,0-0.3-0.1c0,0,0-0.1,0.1-0.1c0.1,0,0.3,0,0.5-0.1
		c0.3-0.1,0.4-0.4,0.5-0.9c0.1-0.7,0.1-2,0.1-3.5v-6.8l-2.4,0c-1,0-1.4,0.1-1.6,0.5c-0.2,0.3-0.2,0.4-0.3,0.5c0,0.1-0.1,0.2-0.2,0.2
		c0,0-0.1,0-0.1-0.1c0-0.2,0.3-1.5,0.4-1.7c0-0.1,0.1-0.3,0.2-0.3c0.1,0,0.3,0.2,0.7,0.2c0.5,0,1.1,0.1,1.3,0.1h6
		c0.5,0,0.9,0,1.1-0.1c0.2,0,0.4-0.1,0.5-0.1c0.1,0,0.1,0.1,0.1,0.2c0,0.5,0,1.6,0,1.8c0,0.1,0,0.2-0.1,0.2c-0.1,0-0.1,0-0.1-0.3
		l0-0.2c0-0.5-0.4-0.9-2-0.9l-2,0V102.7z"/>
	<path class="st0" d="M25.7,102.7c0,1.5,0,2.8,0.1,3.5c0,0.5,0.1,0.8,0.6,0.9c0.2,0,0.6,0.1,0.7,0.1c0.1,0,0.1,0,0.1,0.1
		c0,0.1-0.1,0.1-0.3,0.1c-0.9,0-1.9,0-2,0c-0.1,0-1.1,0-1.6,0c-0.2,0-0.3,0-0.3-0.1c0,0,0-0.1,0.1-0.1c0.1,0,0.3,0,0.5-0.1
		c0.3-0.1,0.4-0.4,0.5-0.9c0.1-0.7,0.1-2,0.1-3.5V101c0-0.1,0-0.1-0.1-0.1h-6.8c0,0-0.1,0-0.1,0.1v1.7c0,1.5,0,2.8,0.1,3.5
		c0,0.5,0.1,0.8,0.6,0.9c0.2,0,0.6,0.1,0.7,0.1c0.1,0,0.1,0,0.1,0.1c0,0.1-0.1,0.1-0.3,0.1c-0.9,0-1.9,0-2,0c-0.1,0-1.1,0-1.6,0
		c-0.2,0-0.3,0-0.3-0.1c0,0,0-0.1,0.1-0.1c0.1,0,0.3,0,0.5-0.1c0.3-0.1,0.4-0.4,0.5-0.9c0.1-0.7,0.1-2,0.1-3.5v-2.8c0-2.5,0-3,0-3.5
		c0-0.5-0.2-0.8-0.7-0.9c-0.1,0-0.4,0-0.5,0c-0.1,0-0.1,0-0.1-0.1c0-0.1,0.1-0.1,0.3-0.1c0.7,0,1.7,0,1.8,0c0.1,0,1.1,0,1.6,0
		c0.2,0,0.3,0,0.3,0.1c0,0.1-0.1,0.1-0.1,0.1c-0.1,0-0.2,0-0.4,0c-0.4,0.1-0.6,0.4-0.6,0.9c0,0.5,0,1,0,3.5v0.3c0,0.1,0,0.1,0.1,0.1
		h6.8c0,0,0.1,0,0.1-0.1v-0.3c0-2.5,0-3,0-3.5c0-0.5-0.2-0.8-0.7-0.9c-0.1,0-0.4,0-0.5,0c-0.1,0-0.1,0-0.1-0.1
		c0-0.1,0.1-0.1,0.3-0.1c0.7,0,1.7,0,1.8,0c0.1,0,1.1,0,1.6,0c0.2,0,0.3,0,0.3,0.1c0,0.1-0.1,0.1-0.1,0.1c-0.1,0-0.2,0-0.4,0
		c-0.4,0.1-0.6,0.4-0.6,0.9c0,0.5,0,1,0,3.5V102.7z"/>
	<path class="st0" d="M31.5,99.9c0-2.5,0-3,0-3.5c0-0.5-0.2-0.8-0.7-0.9c-0.1,0-0.4,0-0.5,0c-0.1,0-0.1,0-0.1-0.1
		c0-0.1,0.1-0.1,0.3-0.1c0.4,0,0.8,0,1.2,0l0.7,0c0.1,0,3.3,0,3.7,0c0.3,0,0.6,0,0.7-0.1c0.1,0,0.1-0.1,0.2-0.1c0,0,0.1,0.1,0.1,0.1
		c0,0.1-0.1,0.3-0.1,0.8c0,0.2,0,0.9-0.1,1.1c0,0.1,0,0.2-0.1,0.2c-0.1,0-0.1-0.1-0.1-0.2c0-0.1,0-0.4-0.1-0.6
		c-0.1-0.3-0.3-0.5-1.1-0.5c-0.3,0-2,0-2.2,0c-0.1,0-0.1,0-0.1,0.2v4.5c0,0.1,0,0.2,0.1,0.2c0.2,0,2.2,0,2.6,0
		c0.4,0,0.6-0.1,0.8-0.2c0.1-0.1,0.2-0.2,0.2-0.2c0,0,0.1,0,0.1,0.1c0,0.1-0.1,0.4-0.1,0.9c0,0.3-0.1,0.9-0.1,1c0,0.1,0,0.3-0.1,0.3
		c-0.1,0-0.1-0.1-0.1-0.1c0-0.2,0-0.3-0.1-0.5c-0.1-0.2-0.2-0.5-0.8-0.6c-0.4,0-2-0.1-2.3-0.1c-0.1,0-0.1,0-0.1,0.1v1.4
		c0,0.5,0,2.4,0,2.8c0,1.1,0.3,1.3,1.9,1.3c0.4,0,1.1,0,1.5-0.2c0.4-0.2,0.6-0.5,0.7-1.2c0-0.2,0.1-0.2,0.1-0.2
		c0.1,0,0.1,0.1,0.1,0.2c0,0.1-0.1,1.2-0.2,1.6c-0.1,0.4-0.2,0.4-0.9,0.4c-1.2,0-2.1,0-2.7,0c-0.6,0-1,0-1.3,0c0,0-0.3,0-0.6,0
		c-0.3,0-0.7,0-0.9,0c-0.2,0-0.3,0-0.3-0.1c0,0,0-0.1,0.1-0.1c0.1,0,0.3,0,0.5-0.1c0.3-0.1,0.4-0.4,0.5-0.9c0.1-0.7,0.1-2,0.1-3.5
		V99.9z"/>
	<path class="st0" d="M48.8,101.5c0,1.7,0,3.2,0,3.5c0,0.4,0,1,0.2,1.2c0.2,0.3,0.8,0.6,2.7,0.6c1.5,0,2.9-0.5,3.8-1.5
		c0.8-0.8,1.3-2.4,1.3-3.9c0-2-0.9-3.4-1.5-4.1c-1.5-1.6-3.4-1.8-5.3-1.8c-0.3,0-0.9,0-1,0.1c-0.1,0.1-0.2,0.1-0.2,0.3
		c0,0.5,0,2.2,0,3.4V101.5z M47.4,99.8c0-2.5,0-3,0-3.5c0-0.5-0.2-0.8-0.7-0.9c-0.1,0-0.4,0-0.5,0c-0.1,0-0.1,0-0.1-0.1
		c0-0.1,0.1-0.1,0.3-0.1c0.7,0,1.7,0,1.8,0c0.2,0,1.2,0,2.2,0c1.6,0,4.5-0.1,6.5,1.8c0.8,0.8,1.6,2.2,1.6,4.1c0,2-0.8,3.6-1.7,4.5
		c-0.7,0.7-2.1,1.9-4.9,1.9c-0.7,0-1.5,0-2.2-0.1c-0.7,0-1.3-0.1-1.3-0.1c0,0-0.3,0-0.6,0c-0.3,0-0.7,0-0.9,0c-0.2,0-0.3,0-0.3-0.1
		c0,0,0-0.1,0.1-0.1c0.1,0,0.3,0,0.5-0.1c0.3-0.1,0.4-0.4,0.5-0.9c0.1-0.7,0.1-2,0.1-3.5V99.8z"/>
	<path class="st0" d="M62.1,99.8c0-2.5,0-3,0-3.5c0-0.5-0.2-0.8-0.7-0.9c-0.1,0-0.4,0-0.5,0c-0.1,0-0.1,0-0.1-0.1
		c0-0.1,0.1-0.1,0.3-0.1c0.4,0,0.8,0,1.2,0l0.7,0c0.1,0,3.3,0,3.7,0c0.3,0,0.6,0,0.7-0.1c0.1,0,0.1-0.1,0.2-0.1c0,0,0.1,0.1,0.1,0.1
		c0,0.1-0.1,0.3-0.1,0.8c0,0.2,0,0.9-0.1,1.1c0,0.1,0,0.2-0.1,0.2C67,97.1,67,97,67,96.9c0-0.1,0-0.4-0.1-0.6
		c-0.1-0.3-0.3-0.5-1.1-0.5c-0.3,0-2,0-2.2,0c-0.1,0-0.1,0-0.1,0.2v4.5c0,0.1,0,0.2,0.1,0.2c0.2,0,2.2,0,2.6,0
		c0.4,0,0.6-0.1,0.8-0.2c0.1-0.1,0.2-0.2,0.2-0.2c0,0,0.1,0,0.1,0.1c0,0.1-0.1,0.4-0.1,0.9c0,0.3-0.1,0.9-0.1,1c0,0.1,0,0.3-0.1,0.3
		c-0.1,0-0.1-0.1-0.1-0.1c0-0.2,0-0.3-0.1-0.5c-0.1-0.2-0.2-0.5-0.8-0.6c-0.4,0-2-0.1-2.3-0.1c-0.1,0-0.1,0-0.1,0.1v1.4
		c0,0.5,0,2.4,0,2.8c0,1.1,0.3,1.3,1.9,1.3c0.4,0,1.1,0,1.5-0.2c0.4-0.2,0.6-0.5,0.7-1.2c0-0.2,0.1-0.2,0.1-0.2
		c0.1,0,0.1,0.1,0.1,0.2c0,0.1-0.1,1.2-0.2,1.6c-0.1,0.4-0.2,0.4-0.9,0.4c-1.2,0-2.1,0-2.7,0c-0.6,0-1,0-1.3,0c0,0-0.3,0-0.6,0
		c-0.3,0-0.7,0-0.9,0c-0.2,0-0.3,0-0.3-0.1c0,0,0-0.1,0.1-0.1c0.1,0,0.3,0,0.5-0.1c0.3-0.1,0.4-0.4,0.5-0.9c0.1-0.7,0.1-2,0.1-3.5
		V99.8z"/>
	<path class="st0" d="M75.8,105.3c0.9-2.2,3.1-7.8,3.5-9c0.1-0.2,0.1-0.5,0.1-0.6c0-0.1,0-0.3-0.2-0.4c-0.2-0.1-0.4-0.1-0.6-0.1
		c-0.1,0-0.2,0-0.2-0.1c0-0.1,0.1-0.1,0.4-0.1c0.6,0,1.4,0,1.6,0c0.1,0,0.8,0,1.3,0c0.2,0,0.3,0,0.3,0.1c0,0.1-0.1,0.1-0.2,0.1
		c-0.1,0-0.5,0-0.8,0.2C80.7,95.7,80.5,96,80,97c-0.2,0.5-1,2.4-1.8,4.4c-1,2.4-1.7,4.1-2.1,4.9c-0.5,1-0.5,1.2-0.7,1.2
		c-0.2,0-0.3-0.2-0.6-1l-4-9.9c-0.4-0.9-0.6-1.1-1.2-1.2c-0.2-0.1-0.5-0.1-0.6-0.1c-0.1,0-0.1,0-0.1-0.1c0-0.1,0.2-0.1,0.4-0.1
		c0.8,0,1.7,0,1.9,0c0.2,0,0.9,0,1.5,0c0.3,0,0.4,0,0.4,0.1c0,0.1,0,0.1-0.2,0.1c-0.2,0-0.5,0-0.6,0.1c-0.2,0.1-0.2,0.2-0.2,0.3
		c0,0.2,0.2,0.7,0.4,1.3L75.8,105.3z"/>
	<path class="st0" d="M89.1,106.9c1.5,0,4.5-0.8,4.5-5.5c0-3.9-2.4-6-4.9-6c-2.7,0-4.7,1.8-4.7,5.3
		C83.9,104.5,86.2,106.9,89.1,106.9 M88.7,94.9c3.6,0,6.3,2.3,6.3,6c0,3.6-2.5,6.6-6.4,6.6c-4.4,0-6.3-3.4-6.3-6.3
		C82.4,98.6,84.3,94.9,88.7,94.9"/>
	<path class="st0" d="M98.9,105.1c0,1.3,0.2,1.7,0.6,1.9c0.3,0.1,0.7,0.1,0.8,0.1c0.1,0,0.1,0,0.1,0.1c0,0.1-0.1,0.1-0.3,0.1
		c-0.9,0-1.6,0-1.7,0c-0.1,0-0.8,0-1.5,0c-0.2,0-0.3,0-0.3-0.1c0-0.1,0-0.1,0.1-0.1c0.1,0,0.4,0,0.7-0.1c0.4-0.1,0.5-0.6,0.5-2
		l0-9.2c0-0.6,0-0.8,0.2-0.8c0.1,0,0.4,0.4,0.6,0.5c0.2,0.3,2.6,2.9,5.1,5.5c1.6,1.7,3.4,3.7,3.9,4.2l-0.2-8.2c0-1-0.1-1.4-0.6-1.5
		c-0.3-0.1-0.7-0.1-0.8-0.1c-0.1,0-0.1,0-0.1-0.1c0-0.1,0.1-0.1,0.3-0.1c0.7,0,1.5,0,1.7,0c0.2,0,0.7,0,1.4,0c0.2,0,0.3,0,0.3,0.1
		c0,0.1-0.1,0.1-0.2,0.1c-0.1,0-0.2,0-0.4,0c-0.5,0.1-0.6,0.5-0.6,1.4l0,9.5c0,1.1,0,1.1-0.1,1.1c-0.1,0-0.3-0.2-1.2-1
		c-0.2-0.2-2.5-2.5-4.2-4.4c-1.9-2-3.7-4-4.2-4.6L98.9,105.1z"/>
	<path class="st0" d="M112.7,107.1c-0.2-0.1-0.2-0.2-0.2-0.6c0-0.8,0.1-1.5,0.1-1.7c0-0.2,0-0.3,0.1-0.3c0.1,0,0.1,0,0.1,0.2
		c0,0.1,0,0.4,0,0.6c0.2,1.2,1.3,1.6,2.4,1.6c1.5,0,2.3-1.1,2.3-2.1c0-1.1-0.5-1.8-1.9-2.9l-0.7-0.6c-1.7-1.4-2.1-2.4-2.1-3.5
		c0-1.7,1.3-2.9,3.3-2.9c0.6,0,1.1,0.1,1.5,0.2c0.3,0.1,0.4,0.1,0.6,0.1c0.1,0,0.2,0,0.2,0.1c0,0.1-0.1,0.6-0.1,1.7
		c0,0.3,0,0.4-0.1,0.4c-0.1,0-0.1-0.1-0.1-0.2c0-0.2-0.1-0.6-0.2-0.8c-0.1-0.2-0.5-0.9-2-0.9c-1.1,0-2,0.7-2,1.9
		c0,0.9,0.4,1.5,2,2.7l0.5,0.4c1.9,1.5,2.4,2.5,2.4,3.8c0,0.7-0.3,1.9-1.4,2.7c-0.7,0.5-1.6,0.7-2.4,0.7
		C114.1,107.5,113.4,107.4,112.7,107.1"/>
	<path class="st0" d="M132.7,102.6c0,1.5,0,2.8,0.1,3.5c0,0.5,0.1,0.8,0.6,0.9c0.2,0,0.6,0.1,0.7,0.1c0.1,0,0.1,0,0.1,0.1
		c0,0.1-0.1,0.1-0.3,0.1c-0.9,0-1.9,0-2,0s-1.1,0-1.6,0c-0.2,0-0.3,0-0.3-0.1c0,0,0-0.1,0.1-0.1c0.1,0,0.3,0,0.5-0.1
		c0.3-0.1,0.4-0.4,0.5-0.9c0.1-0.7,0.1-2,0.1-3.5v-1.7c0-0.1,0-0.1-0.1-0.1h-6.8c0,0-0.1,0-0.1,0.1v1.7c0,1.5,0,2.8,0.1,3.5
		c0,0.5,0.1,0.8,0.6,0.9c0.2,0,0.6,0.1,0.7,0.1c0.1,0,0.1,0,0.1,0.1c0,0.1-0.1,0.1-0.3,0.1c-0.9,0-1.9,0-2,0c-0.1,0-1.1,0-1.6,0
		c-0.2,0-0.3,0-0.3-0.1c0,0,0-0.1,0.1-0.1c0.1,0,0.3,0,0.5-0.1c0.3-0.1,0.4-0.4,0.5-0.9c0.1-0.7,0.1-2,0.1-3.5v-2.8c0-2.5,0-3,0-3.5
		c0-0.5-0.2-0.8-0.7-0.9c-0.1,0-0.4,0-0.5,0c-0.1,0-0.1,0-0.1-0.1c0-0.1,0.1-0.1,0.3-0.1c0.7,0,1.7,0,1.8,0c0.1,0,1.1,0,1.6,0
		c0.2,0,0.3,0,0.3,0.1c0,0.1-0.1,0.1-0.1,0.1c-0.1,0-0.2,0-0.4,0c-0.4,0.1-0.6,0.4-0.6,0.9c0,0.5,0,1,0,3.5v0.3c0,0.1,0,0.1,0.1,0.1
		h6.8c0,0,0.1,0,0.1-0.1v-0.3c0-2.5,0-3,0-3.5c0-0.5-0.2-0.8-0.7-0.9c-0.1,0-0.4,0-0.5,0c-0.1,0-0.1,0-0.1-0.1
		c0-0.1,0.1-0.1,0.3-0.1c0.7,0,1.7,0,1.8,0s1.1,0,1.6,0c0.2,0,0.3,0,0.3,0.1c0,0.1-0.1,0.1-0.1,0.1c-0.1,0-0.2,0-0.4,0
		c-0.4,0.1-0.6,0.4-0.6,0.9c0,0.5,0,1,0,3.5V102.6z"/>
	<path class="st0" d="M139.8,102.6c0,1.5,0,2.8,0.1,3.5c0,0.5,0.1,0.8,0.6,0.9c0.2,0,0.6,0.1,0.7,0.1c0.1,0,0.1,0,0.1,0.1
		c0,0.1-0.1,0.1-0.3,0.1c-0.9,0-1.9,0-2,0s-1.1,0-1.6,0c-0.2,0-0.3,0-0.3-0.1c0,0,0-0.1,0.1-0.1c0.1,0,0.3,0,0.5-0.1
		c0.3-0.1,0.4-0.4,0.5-0.9c0.1-0.7,0.1-2,0.1-3.5v-2.8c0-2.5,0-3,0-3.5c0-0.5-0.2-0.8-0.5-0.9c-0.2,0-0.4-0.1-0.5-0.1
		c-0.1,0-0.1,0-0.1-0.1c0-0.1,0.1-0.1,0.3-0.1c0.5,0,1.5,0,1.6,0s1.1,0,1.6,0c0.2,0,0.3,0,0.3,0.1c0,0.1-0.1,0.1-0.1,0.1
		c-0.1,0-0.2,0-0.4,0c-0.4,0.1-0.6,0.4-0.6,0.9c0,0.5,0,1,0,3.5V102.6z"/>
	<path class="st0" d="M146.8,101.2c0,0.1,0,0.1,0.1,0.2c0.2,0.1,1,0.3,1.7,0.3c0.4,0,0.8,0,1.2-0.3c0.6-0.4,1-1.3,1-2.5
		c0-2-1.1-3.2-2.8-3.2c-0.5,0-0.9,0-1.1,0.1c-0.1,0-0.1,0.1-0.1,0.2V101.2z M145.5,99.8c0-2.5,0-3,0-3.5c0-0.5-0.2-0.8-0.7-0.9
		c-0.1,0-0.4,0-0.5,0c-0.1,0-0.1,0-0.1-0.1c0-0.1,0.1-0.1,0.3-0.1c0.7,0,1.7,0,1.8,0c0.2,0,1.4,0,1.9,0c1,0,2.1,0.1,3,0.7
		c0.4,0.3,1.1,1.1,1.1,2.2c0,1.2-0.5,2.4-2,3.7c1.3,1.7,2.4,3.1,3.4,4.1c0.9,0.9,1.6,1.1,2,1.2c0.3,0,0.5,0,0.6,0
		c0.1,0,0.1,0,0.1,0.1c0,0.1-0.1,0.1-0.4,0.1h-1.1c-0.9,0-1.3-0.1-1.7-0.3c-0.7-0.4-1.3-1.2-2.2-2.4c-0.7-0.9-1.4-2-1.8-2.4
		c-0.1-0.1-0.1-0.1-0.2-0.1l-2,0c-0.1,0-0.1,0-0.1,0.1v0.4c0,1.5,0,2.8,0.1,3.5c0,0.5,0.1,0.8,0.6,0.9c0.2,0,0.6,0.1,0.7,0.1
		c0.1,0,0.1,0,0.1,0.1c0,0.1-0.1,0.1-0.3,0.1c-0.9,0-1.9,0-2,0c0,0-1,0-1.5,0c-0.2,0-0.3,0-0.3-0.1c0,0,0-0.1,0.1-0.1
		c0.1,0,0.3,0,0.5-0.1c0.3-0.1,0.4-0.4,0.5-0.9c0.1-0.7,0.1-2,0.1-3.5V99.8z"/>
	<path class="st0" d="M157.7,99.8c0-2.5,0-3,0-3.5c0-0.5-0.2-0.8-0.7-0.9c-0.1,0-0.4,0-0.5,0c-0.1,0-0.1,0-0.1-0.1
		c0-0.1,0.1-0.1,0.3-0.1c0.4,0,0.8,0,1.2,0l0.7,0c0.1,0,3.3,0,3.7,0c0.3,0,0.6,0,0.7-0.1c0.1,0,0.1-0.1,0.2-0.1c0,0,0.1,0.1,0.1,0.1
		c0,0.1-0.1,0.3-0.1,0.8c0,0.2,0,0.9-0.1,1.1c0,0.1,0,0.2-0.1,0.2c-0.1,0-0.1-0.1-0.1-0.2c0-0.1,0-0.4-0.1-0.6
		c-0.1-0.3-0.3-0.5-1.1-0.5c-0.3,0-2,0-2.2,0c-0.1,0-0.1,0-0.1,0.2v4.5c0,0.1,0,0.2,0.1,0.2c0.2,0,2.2,0,2.6,0
		c0.4,0,0.6-0.1,0.8-0.2c0.1-0.1,0.2-0.2,0.2-0.2c0,0,0.1,0,0.1,0.1c0,0.1-0.1,0.4-0.1,0.9c0,0.3-0.1,0.9-0.1,1c0,0.1,0,0.3-0.1,0.3
		c-0.1,0-0.1-0.1-0.1-0.1c0-0.2,0-0.3-0.1-0.5c-0.1-0.2-0.2-0.5-0.8-0.6c-0.4,0-2-0.1-2.3-0.1c-0.1,0-0.1,0-0.1,0.1v1.4
		c0,0.5,0,2.4,0,2.8c0,1.1,0.3,1.3,1.9,1.3c0.4,0,1.1,0,1.5-0.2c0.4-0.2,0.6-0.5,0.7-1.2c0-0.2,0.1-0.2,0.1-0.2
		c0.1,0,0.1,0.1,0.1,0.2c0,0.1-0.1,1.2-0.2,1.6c-0.1,0.4-0.2,0.4-0.9,0.4c-1.2,0-2.1,0-2.7,0c-0.6,0-1,0-1.3,0c0,0-0.3,0-0.6,0
		c-0.3,0-0.7,0-0.9,0c-0.2,0-0.3,0-0.3-0.1c0,0,0-0.1,0.1-0.1c0.1,0,0.3,0,0.5-0.1c0.3-0.1,0.4-0.4,0.5-0.9c0.1-0.7,0.1-2,0.1-3.5
		V99.8z"/>
	<path class="st0" d="M175.3,105.8c-1.6-1.4-2-3.2-2-4.8c0-1.1,0.4-3,1.8-4.4c1-1,2.4-1.7,4.9-1.7c0.6,0,1.5,0,2.3,0.2
		c0.6,0.1,1.1,0.2,1.6,0.2c0.2,0,0.2,0.1,0.2,0.2c0,0.1,0,0.3-0.1,0.9c0,0.5,0,1.4,0,1.7c0,0.2,0,0.3-0.1,0.3
		c-0.1,0-0.1-0.1-0.1-0.3c0-0.6-0.3-1.3-0.7-1.6c-0.6-0.5-1.8-0.9-3.2-0.9c-2.1,0-3.1,0.6-3.7,1.2c-1.2,1.1-1.5,2.6-1.5,4.2
		c0,3.1,2.4,5.9,5.8,5.9c1.2,0,2.2-0.1,2.8-0.8c0.3-0.4,0.5-1.1,0.6-1.4c0-0.2,0.1-0.2,0.2-0.2c0.1,0,0.1,0.1,0.1,0.2
		c0,0.1-0.2,1.5-0.4,2.1c-0.1,0.3-0.1,0.3-0.4,0.5c-0.6,0.3-1.9,0.4-2.9,0.4C178.2,107.5,176.6,106.9,175.3,105.8"/>
	<path class="st0" d="M189.5,102.7c0,2.4,0.1,3.4,0.4,3.7c0.3,0.3,0.7,0.4,1.9,0.4c0.9,0,1.6,0,2-0.5c0.2-0.3,0.4-0.7,0.4-1
		c0-0.1,0-0.2,0.1-0.2c0.1,0,0.1,0.1,0.1,0.2c0,0.2-0.1,1.1-0.2,1.6c-0.1,0.4-0.2,0.4-1,0.4c-1.2,0-2,0-2.7,0c-0.7,0-1.2,0-1.6,0
		c-0.1,0-0.3,0-0.7,0c-0.3,0-0.7,0-0.9,0c-0.2,0-0.3,0-0.3-0.1c0,0,0-0.1,0.1-0.1c0.1,0,0.3,0,0.5-0.1c0.3-0.1,0.4-0.4,0.5-0.9
		c0.1-0.7,0.1-2,0.1-3.5v-2.8c0-2.5,0-3,0-3.5c0-0.5-0.2-0.8-0.7-0.9c-0.1,0-0.4,0-0.5,0c-0.1,0-0.1,0-0.1-0.1
		c0-0.1,0.1-0.1,0.3-0.1c0.7,0,1.7,0,1.8,0c0.1,0,1.3,0,1.7,0c0.2,0,0.3,0,0.3,0.1c0,0.1-0.1,0.1-0.1,0.1c-0.1,0-0.3,0-0.5,0
		c-0.5,0.1-0.6,0.4-0.6,0.9c0,0.5,0,1,0,3.5V102.7z"/>
	<path class="st0" d="M199.1,102.6c0,1.5,0,2.8,0.1,3.5c0,0.5,0.1,0.8,0.6,0.9c0.2,0,0.6,0.1,0.7,0.1c0.1,0,0.1,0,0.1,0.1
		c0,0.1-0.1,0.1-0.3,0.1c-0.9,0-1.9,0-2,0c-0.1,0-1.1,0-1.6,0c-0.2,0-0.3,0-0.3-0.1c0,0,0-0.1,0.1-0.1c0.1,0,0.3,0,0.5-0.1
		c0.3-0.1,0.4-0.4,0.5-0.9c0.1-0.7,0.1-2,0.1-3.5v-2.8c0-2.5,0-3,0-3.5c0-0.5-0.2-0.8-0.5-0.9c-0.2,0-0.4-0.1-0.5-0.1
		c-0.1,0-0.1,0-0.1-0.1c0-0.1,0.1-0.1,0.3-0.1c0.5,0,1.5,0,1.6,0c0.1,0,1.1,0,1.6,0c0.2,0,0.3,0,0.3,0.1c0,0.1-0.1,0.1-0.1,0.1
		c-0.1,0-0.2,0-0.4,0c-0.4,0.1-0.6,0.4-0.6,0.9c0,0.5,0,1,0,3.5V102.6z"/>
	<path class="st0" d="M205.3,105.1c0,1.3,0.2,1.7,0.6,1.9c0.3,0.1,0.7,0.1,0.8,0.1c0.1,0,0.1,0,0.1,0.1c0,0.1-0.1,0.1-0.3,0.1
		c-0.9,0-1.6,0-1.7,0c-0.1,0-0.8,0-1.5,0c-0.2,0-0.3,0-0.3-0.1c0-0.1,0-0.1,0.1-0.1c0.1,0,0.4,0,0.7-0.1c0.4-0.1,0.5-0.6,0.5-2
		l0-9.2c0-0.6,0-0.8,0.2-0.8c0.1,0,0.4,0.4,0.6,0.5c0.2,0.3,2.6,2.9,5.1,5.5c1.6,1.7,3.4,3.7,3.9,4.2l-0.2-8.2c0-1-0.1-1.4-0.6-1.5
		c-0.3-0.1-0.7-0.1-0.8-0.1c-0.1,0-0.1,0-0.1-0.1c0-0.1,0.1-0.1,0.3-0.1c0.7,0,1.5,0,1.7,0c0.2,0,0.7,0,1.4,0c0.2,0,0.3,0,0.3,0.1
		c0,0.1-0.1,0.1-0.2,0.1c-0.1,0-0.2,0-0.4,0c-0.5,0.1-0.6,0.5-0.6,1.4l0,9.5c0,1.1,0,1.1-0.1,1.1c-0.1,0-0.3-0.2-1.2-1
		c-0.2-0.2-2.5-2.5-4.2-4.4c-1.9-2-3.7-4-4.2-4.6L205.3,105.1z"/>
	<path class="st0" d="M221.5,102.6c0,1.5,0,2.8,0.1,3.5c0,0.5,0.1,0.8,0.6,0.9c0.2,0,0.6,0.1,0.7,0.1c0.1,0,0.1,0,0.1,0.1
		c0,0.1-0.1,0.1-0.3,0.1c-0.9,0-1.9,0-2,0c-0.1,0-1.1,0-1.6,0c-0.2,0-0.3,0-0.3-0.1c0,0,0-0.1,0.1-0.1c0.1,0,0.3,0,0.5-0.1
		c0.3-0.1,0.4-0.4,0.5-0.9c0.1-0.7,0.1-2,0.1-3.5v-2.8c0-2.5,0-3,0-3.5c0-0.5-0.2-0.8-0.5-0.9c-0.2,0-0.4-0.1-0.5-0.1
		c-0.1,0-0.1,0-0.1-0.1c0-0.1,0.1-0.1,0.3-0.1c0.5,0,1.5,0,1.6,0c0.1,0,1.1,0,1.6,0c0.2,0,0.3,0,0.3,0.1c0,0.1-0.1,0.1-0.1,0.1
		c-0.1,0-0.2,0-0.4,0c-0.4,0.1-0.6,0.4-0.6,0.9c0,0.5,0,1,0,3.5V102.6z"/>
	<path class="st0" d="M227.1,105.8c-1.6-1.4-2-3.2-2-4.8c0-1.1,0.4-3,1.8-4.4c1-1,2.4-1.7,4.9-1.7c0.6,0,1.5,0,2.3,0.2
		c0.6,0.1,1.1,0.2,1.6,0.2c0.2,0,0.2,0.1,0.2,0.2c0,0.1,0,0.3-0.1,0.9c0,0.5,0,1.4,0,1.7c0,0.2,0,0.3-0.1,0.3
		c-0.1,0-0.1-0.1-0.1-0.3c0-0.6-0.3-1.3-0.7-1.6c-0.6-0.5-1.8-0.9-3.2-0.9c-2.1,0-3.1,0.6-3.7,1.2c-1.2,1.1-1.5,2.6-1.5,4.2
		c0,3.1,2.4,5.9,5.8,5.9c1.2,0,2.2-0.1,2.8-0.8c0.3-0.4,0.5-1.1,0.6-1.4c0-0.2,0.1-0.2,0.2-0.2c0.1,0,0.1,0.1,0.1,0.2
		c0,0.1-0.2,1.5-0.4,2.1c-0.1,0.3-0.1,0.3-0.4,0.5c-0.6,0.3-1.9,0.4-2.9,0.4C230,107.5,228.3,106.9,227.1,105.8"/>
</g>
</svg>
