<?xml version="1.0" encoding="utf-8"?>
<!-- Generator: Adobe Illustrator 22.1.0, SVG Export Plug-In . SVG Version: 6.00 Build 0)  -->
<svg version="1.1" id="Layer_1" xmlns="http://www.w3.org/2000/svg" xmlns:xlink="http://www.w3.org/1999/xlink" x="0px" y="0px"
	 viewBox="0 0 249.4 96.8" style="enable-background:new 0 0 249.4 96.8;" xml:space="preserve">
<style type="text/css">
	.st0{clip-path:url(#SVGID_2_);fill:#FFFFFF;}
</style>
<g>
	<defs>
		<rect id="SVGID_1_" x="4.5" y="3.6" width="243" height="89.5"/>
	</defs>
	<clipPath id="SVGID_2_">
		<use xlink:href="#SVGID_1_"  style="overflow:visible;"/>
	</clipPath>
	<path class="st0" d="M26.8,83.1C11,67.3,11,41.7,26.8,25.9c15.8-15.8,41.4-15.8,57.2,0c4.8,4.8,8.1,10.4,10,16.4
		c-1.3-9.3-5.5-18.3-12.7-25.5c-17.6-17.6-46-17.6-63.6,0c-17.6,17.6-17.6,46,0,63.6c7.2,7.2,16.2,11.4,25.5,12.7
		C37.2,91.2,31.6,87.9,26.8,83.1"/>
	<path class="st0" d="M46.3,21.4c-16.5,8.5-23,28.7-14.5,45.2c8.5,16.5,28.7,23,45.2,14.5c5-2.6,9-6.2,12-10.4
		c-3.4,7-9,13.1-16.5,16.9c-18.3,9.4-40.8,2.2-50.2-16.1c-9.4-18.3-2.2-40.8,16.1-50.2c7.5-3.9,15.7-4.9,23.4-3.6
		C56.6,17.7,51.3,18.9,46.3,21.4"/>
	<path class="st0" d="M84.3,35.7c6.3,13.6,0.3,29.7-13.3,36c-13.6,6.3-29.7,0.3-36-13.3c-1.9-4.1-2.7-8.4-2.5-12.6
		c-1.3,6.2-0.8,12.8,2.1,19c7,15.1,24.9,21.7,40,14.7c15.1-7,21.7-24.9,14.7-40c-2.8-6.2-7.5-10.9-13.1-13.9
		C79.7,28.2,82.4,31.6,84.3,35.7"/>
	<path class="st0" d="M113.5,26.1c0,1.9,0,3.4,0.1,4.2c0.1,0.6,0.2,1,0.8,1.1c0.3,0,0.7,0.1,0.9,0.1c0.1,0,0.2,0.1,0.2,0.1
		c0,0.1-0.1,0.2-0.3,0.2c-1.1,0-2.3-0.1-2.4-0.1c-0.1,0-1.3,0.1-1.9,0.1c-0.2,0-0.3,0-0.3-0.2c0-0.1,0-0.1,0.2-0.1
		c0.2,0,0.4,0,0.6-0.1c0.4-0.1,0.5-0.5,0.6-1.1c0.1-0.8,0.1-2.3,0.1-4.2v-8.2l-2.9,0c-1.2,0-1.7,0.2-2,0.6c-0.2,0.3-0.3,0.5-0.3,0.6
		c-0.1,0.2-0.1,0.2-0.2,0.2c-0.1,0-0.1-0.1-0.1-0.2c0-0.2,0.4-1.9,0.4-2c0-0.1,0.1-0.4,0.2-0.4c0.1,0,0.3,0.2,0.9,0.2
		c0.6,0.1,1.3,0.1,1.5,0.1h7.3c0.6,0,1.1,0,1.4-0.1c0.3,0,0.5-0.1,0.5-0.1c0.1,0,0.1,0.1,0.1,0.2c0,0.6-0.1,1.9-0.1,2.1
		c0,0.2-0.1,0.3-0.1,0.3c-0.1,0-0.1-0.1-0.2-0.3l0-0.2c-0.1-0.6-0.5-1-2.4-1.1l-2.4,0V26.1z"/>
	<path class="st0" d="M134.4,26.1c0,1.9,0,3.4,0.1,4.2c0.1,0.6,0.2,1,0.8,1.1c0.3,0,0.7,0.1,0.9,0.1c0.1,0,0.2,0.1,0.2,0.1
		c0,0.1-0.1,0.2-0.3,0.2c-1.1,0-2.3-0.1-2.4-0.1s-1.3,0.1-1.9,0.1c-0.2,0-0.3,0-0.3-0.2c0-0.1,0-0.1,0.2-0.1c0.2,0,0.4,0,0.6-0.1
		c0.4-0.1,0.5-0.5,0.6-1.1c0.1-0.8,0.1-2.3,0.1-4.2v-2c0-0.1-0.1-0.1-0.1-0.1h-8.2c-0.1,0-0.1,0-0.1,0.1v2c0,1.9,0,3.4,0.1,4.2
		c0.1,0.6,0.2,1,0.8,1.1c0.3,0,0.7,0.1,0.9,0.1c0.1,0,0.2,0.1,0.2,0.1c0,0.1-0.1,0.2-0.3,0.2c-1.1,0-2.3-0.1-2.4-0.1
		s-1.3,0.1-1.9,0.1c-0.2,0-0.3,0-0.3-0.2c0-0.1,0-0.1,0.2-0.1c0.2,0,0.4,0,0.6-0.1c0.4-0.1,0.5-0.5,0.6-1.1c0.1-0.8,0.1-2.3,0.1-4.2
		v-3.4c0-3,0-3.6,0-4.2c0-0.7-0.2-1-0.8-1.1c-0.2,0-0.5-0.1-0.7-0.1c-0.1,0-0.2,0-0.2-0.1c0-0.1,0.1-0.2,0.3-0.2
		c0.9,0,2.1,0.1,2.2,0.1s1.3-0.1,1.9-0.1c0.2,0,0.3,0,0.3,0.2c0,0.1-0.1,0.1-0.2,0.1c-0.1,0-0.3,0-0.5,0.1c-0.5,0.1-0.7,0.4-0.7,1.1
		c0,0.6,0,1.2,0,4.2V23c0,0.1,0.1,0.1,0.1,0.1h8.2c0.1,0,0.1,0,0.1-0.1v-0.4c0-3,0-3.6,0-4.2c0-0.7-0.2-1-0.8-1.1
		c-0.2,0-0.5-0.1-0.7-0.1c-0.1,0-0.2,0-0.2-0.1c0-0.1,0.1-0.2,0.3-0.2c0.9,0,2.1,0.1,2.2,0.1s1.3-0.1,1.9-0.1c0.2,0,0.3,0,0.3,0.2
		c0,0.1-0.1,0.1-0.2,0.1c-0.1,0-0.3,0-0.5,0.1c-0.5,0.1-0.7,0.4-0.7,1.1c0,0.6,0,1.2,0,4.2V26.1z"/>
	<path class="st0" d="M141.4,22.6c0-3,0-3.6,0-4.2c0-0.7-0.2-1-0.8-1.1c-0.2,0-0.5-0.1-0.7-0.1c-0.1,0-0.2,0-0.2-0.1
		c0-0.1,0.1-0.2,0.3-0.2c0.4,0,1,0,1.4,0l0.8,0c0.1,0,4,0,4.4,0c0.4,0,0.7-0.1,0.8-0.1c0.1,0,0.2-0.1,0.3-0.1c0.1,0,0.1,0.1,0.1,0.2
		c0,0.1-0.1,0.4-0.2,0.9c0,0.2-0.1,1-0.1,1.3c0,0.1-0.1,0.2-0.1,0.2c-0.1,0-0.2-0.1-0.2-0.3c0-0.1,0-0.5-0.1-0.7
		c-0.1-0.3-0.3-0.5-1.4-0.7c-0.3,0-2.4-0.1-2.7-0.1c-0.1,0-0.1,0.1-0.1,0.2v5.4c0,0.1,0,0.2,0.1,0.2c0.3,0,2.6,0,3.1,0
		c0.5,0,0.7-0.1,0.9-0.3c0.1-0.2,0.2-0.3,0.3-0.3c0.1,0,0.1,0,0.1,0.2c0,0.1-0.1,0.4-0.2,1.1c0,0.4-0.1,1.1-0.1,1.2
		c0,0.2,0,0.4-0.1,0.4c-0.1,0-0.1-0.1-0.1-0.2c0-0.2,0-0.4-0.1-0.6c-0.1-0.3-0.3-0.6-1-0.7c-0.5-0.1-2.4-0.1-2.8-0.1
		c-0.1,0-0.1,0.1-0.1,0.1v1.7c0,0.7,0,2.9,0,3.3c0.1,1.3,0.3,1.6,2.2,1.6c0.5,0,1.4,0,1.9-0.2c0.5-0.2,0.7-0.6,0.9-1.4
		c0-0.2,0.1-0.3,0.2-0.3c0.1,0,0.1,0.2,0.1,0.3c0,0.2-0.2,1.5-0.3,1.9c-0.1,0.5-0.3,0.5-1,0.5c-1.5,0-2.5,0-3.3-0.1
		c-0.8,0-1.2-0.1-1.5-0.1c0,0-0.4,0-0.8,0c-0.4,0-0.8,0-1.1,0c-0.2,0-0.3,0-0.3-0.2c0-0.1,0-0.1,0.2-0.1c0.2,0,0.4,0,0.6-0.1
		c0.4-0.1,0.5-0.5,0.6-1.1c0.1-0.8,0.1-2.3,0.1-4.2V22.6z"/>
	<path class="st0" d="M109.7,48.7c0,2.1,0,3.8,0,4.2c0,0.5,0.1,1.3,0.2,1.5c0.3,0.4,1,0.8,3.3,0.8c1.8,0,3.5-0.7,4.6-1.8
		c1-1,1.6-2.9,1.6-4.6c0-2.5-1.1-4.1-1.9-4.9c-1.8-1.9-4-2.2-6.3-2.2c-0.4,0-1.1,0.1-1.3,0.1c-0.2,0.1-0.2,0.2-0.2,0.4
		c0,0.7,0,2.6,0,4.1V48.7z M108.1,46.6c0-3,0-3.6,0-4.2c0-0.7-0.2-1-0.8-1.1c-0.2,0-0.5-0.1-0.7-0.1c-0.1,0-0.2,0-0.2-0.1
		c0-0.1,0.1-0.2,0.3-0.2c0.9,0,2.1,0.1,2.2,0.1c0.2,0,1.5-0.1,2.6-0.1c1.9,0,5.5-0.2,7.8,2.2c1,1,1.9,2.6,1.9,4.9
		c0,2.4-1,4.3-2.1,5.5c-0.8,0.9-2.6,2.2-5.9,2.2c-0.8,0-1.9-0.1-2.7-0.1c-0.9-0.1-1.5-0.1-1.6-0.1c0,0-0.4,0-0.8,0
		c-0.4,0-0.8,0-1.1,0c-0.2,0-0.3,0-0.3-0.2c0-0.1,0-0.1,0.2-0.1c0.2,0,0.4,0,0.6-0.1c0.4-0.1,0.5-0.5,0.6-1.1
		c0.1-0.8,0.1-2.3,0.1-4.2V46.6z"/>
	<path class="st0" d="M125.6,46.6c0-3,0-3.6,0-4.2c0-0.7-0.2-1-0.8-1.1c-0.2,0-0.5-0.1-0.7-0.1c-0.1,0-0.2,0-0.2-0.1
		c0-0.1,0.1-0.2,0.3-0.2c0.4,0,1,0,1.4,0l0.8,0c0.1,0,4,0,4.4,0c0.4,0,0.7-0.1,0.8-0.1c0.1,0,0.2-0.1,0.3-0.1c0.1,0,0.1,0.1,0.1,0.2
		c0,0.1-0.1,0.4-0.2,0.9c0,0.2-0.1,1-0.1,1.3c0,0.1-0.1,0.2-0.1,0.2c-0.1,0-0.2-0.1-0.2-0.3c0-0.1,0-0.5-0.1-0.7
		c-0.1-0.3-0.3-0.5-1.4-0.7c-0.3,0-2.4-0.1-2.7-0.1c-0.1,0-0.1,0.1-0.1,0.2v5.4c0,0.1,0,0.2,0.1,0.2c0.3,0,2.6,0,3.1,0
		c0.5,0,0.7-0.1,0.9-0.3c0.1-0.2,0.2-0.3,0.3-0.3c0.1,0,0.1,0,0.1,0.2c0,0.1-0.1,0.4-0.2,1.1c0,0.4-0.1,1.1-0.1,1.2
		c0,0.2,0,0.4-0.1,0.4c-0.1,0-0.1-0.1-0.1-0.2c0-0.2,0-0.4-0.1-0.6c-0.1-0.3-0.3-0.6-1-0.7c-0.5-0.1-2.4-0.1-2.8-0.1
		c-0.1,0-0.1,0.1-0.1,0.1V50c0,0.7,0,2.9,0,3.3c0.1,1.3,0.3,1.6,2.2,1.6c0.5,0,1.4,0,1.9-0.2c0.5-0.2,0.7-0.6,0.9-1.4
		c0-0.2,0.1-0.3,0.2-0.3c0.1,0,0.1,0.2,0.1,0.3c0,0.2-0.2,1.5-0.3,1.9c-0.1,0.5-0.3,0.5-1,0.5c-1.5,0-2.5,0-3.3-0.1
		c-0.8,0-1.2-0.1-1.5-0.1c0,0-0.4,0-0.8,0c-0.4,0-0.8,0-1.1,0c-0.2,0-0.3,0-0.3-0.2c0-0.1,0-0.1,0.2-0.1c0.2,0,0.4,0,0.6-0.1
		c0.4-0.1,0.5-0.5,0.6-1.1c0.1-0.8,0.1-2.3,0.1-4.2V46.6z"/>
	<path class="st0" d="M142.2,53.3c1.1-2.6,3.7-9.4,4.1-10.8c0.1-0.3,0.2-0.6,0.2-0.7c0-0.2-0.1-0.3-0.3-0.4
		c-0.2-0.1-0.5-0.1-0.7-0.1c-0.1,0-0.2,0-0.2-0.1c0-0.1,0.1-0.2,0.4-0.2c0.8,0,1.7,0.1,1.9,0.1c0.1,0,0.9-0.1,1.5-0.1
		c0.2,0,0.3,0,0.3,0.1s-0.1,0.1-0.2,0.1c-0.1,0-0.6,0-0.9,0.2c-0.3,0.2-0.5,0.5-1.1,1.8c-0.2,0.5-1.2,2.9-2.2,5.3
		c-1.2,2.8-2.1,4.9-2.5,5.9c-0.5,1.2-0.6,1.5-0.8,1.5c-0.2,0-0.3-0.3-0.7-1.2l-4.8-11.9c-0.4-1.1-0.7-1.3-1.4-1.5
		c-0.3-0.1-0.6-0.1-0.7-0.1c-0.1,0-0.2-0.1-0.2-0.1c0-0.1,0.2-0.1,0.5-0.1c0.9,0,2,0.1,2.3,0.1c0.2,0,1.1-0.1,1.8-0.1
		c0.3,0,0.5,0,0.5,0.1s-0.1,0.1-0.2,0.1c-0.2,0-0.6,0-0.7,0.1c-0.2,0.1-0.3,0.3-0.3,0.4c0,0.3,0.2,0.9,0.5,1.6L142.2,53.3z"/>
	<path class="st0" d="M158.1,55.2c1.7,0,5.4-1,5.4-6.7c0-4.7-2.8-7.2-5.9-7.2c-3.2,0-5.7,2.1-5.7,6.4
		C151.9,52.3,154.6,55.2,158.1,55.2 M157.7,40.7c4.4,0,7.6,2.8,7.6,7.3c0,4.3-3.1,7.9-7.7,7.9c-5.3,0-7.5-4.1-7.5-7.6
		C150,45.2,152.3,40.7,157.7,40.7"/>
	<path class="st0" d="M169.9,53c0,1.6,0.2,2.1,0.8,2.2c0.4,0.1,0.8,0.1,1,0.1c0.1,0,0.2,0,0.2,0.1c0,0.1-0.1,0.2-0.3,0.2
		c-1.1,0-1.9-0.1-2.1-0.1c-0.2,0-1,0.1-1.9,0.1c-0.2,0-0.3,0-0.3-0.2c0-0.1,0.1-0.1,0.2-0.1c0.2,0,0.5,0,0.8-0.1
		c0.5-0.1,0.6-0.7,0.6-2.5l0-11.1c0-0.8,0.1-1,0.2-1c0.2,0,0.5,0.4,0.7,0.6c0.3,0.3,3.2,3.5,6.2,6.7c1.9,2.1,4,4.4,4.7,5.1l-0.2-9.9
		c0-1.3-0.2-1.7-0.8-1.8c-0.3-0.1-0.8-0.1-0.9-0.1c-0.1,0-0.2-0.1-0.2-0.1c0-0.1,0.2-0.1,0.4-0.1c0.9,0,1.8,0.1,2,0.1
		c0.2,0,0.9-0.1,1.6-0.1c0.2,0,0.3,0,0.3,0.1c0,0.1-0.1,0.1-0.2,0.1c-0.1,0-0.2,0-0.5,0.1c-0.6,0.1-0.7,0.6-0.7,1.7l0,11.4
		c0,1.3,0,1.4-0.2,1.4c-0.2,0-0.4-0.2-1.4-1.2c-0.2-0.2-3-3-5.1-5.3c-2.2-2.4-4.4-4.9-5.1-5.6L169.9,53z"/>
	<path class="st0" d="M186.5,55.4c-0.3-0.1-0.3-0.2-0.3-0.7c0-1,0.1-1.7,0.1-2.1c0-0.2,0.1-0.3,0.2-0.3c0.1,0,0.1,0.1,0.1,0.2
		c0,0.2,0,0.4,0.1,0.7c0.3,1.4,1.6,2,2.9,2c1.9,0,2.8-1.3,2.8-2.6c0-1.3-0.6-2.1-2.2-3.5l-0.9-0.7c-2.1-1.7-2.5-2.9-2.5-4.2
		c0-2.1,1.6-3.5,4-3.5c0.8,0,1.3,0.1,1.8,0.2c0.4,0.1,0.5,0.1,0.7,0.1c0.2,0,0.2,0,0.2,0.1s-0.1,0.7-0.1,2.1c0,0.3,0,0.4-0.1,0.4
		c-0.1,0-0.1-0.1-0.2-0.3c0-0.2-0.1-0.8-0.3-1c-0.1-0.2-0.6-1-2.4-1c-1.3,0-2.4,0.8-2.4,2.2c0,1.1,0.5,1.8,2.4,3.3l0.5,0.4
		c2.3,1.8,2.8,3,2.8,4.6c0,0.8-0.3,2.3-1.6,3.2c-0.8,0.6-1.9,0.8-2.9,0.8C188.2,55.9,187.3,55.8,186.5,55.4"/>
	<path class="st0" d="M210.5,50c0,1.9,0,3.4,0.1,4.2c0.1,0.6,0.2,1,0.8,1.1c0.3,0,0.7,0.1,0.9,0.1c0.1,0,0.2,0.1,0.2,0.1
		c0,0.1-0.1,0.2-0.3,0.2c-1.1,0-2.3-0.1-2.4-0.1s-1.3,0.1-1.9,0.1c-0.2,0-0.3,0-0.3-0.2c0-0.1,0-0.1,0.2-0.1c0.2,0,0.4,0,0.6-0.1
		c0.4-0.1,0.5-0.5,0.6-1.1c0.1-0.8,0.1-2.3,0.1-4.2v-2c0-0.1-0.1-0.1-0.1-0.1h-8.2c-0.1,0-0.1,0-0.1,0.1v2c0,1.9,0,3.4,0.1,4.2
		c0.1,0.6,0.2,1,0.8,1.1c0.3,0,0.7,0.1,0.9,0.1c0.1,0,0.2,0.1,0.2,0.1c0,0.1-0.1,0.2-0.3,0.2c-1.1,0-2.3-0.1-2.4-0.1
		s-1.3,0.1-1.9,0.1c-0.2,0-0.3,0-0.3-0.2c0-0.1,0-0.1,0.2-0.1c0.2,0,0.4,0,0.6-0.1c0.4-0.1,0.5-0.5,0.6-1.1c0.1-0.8,0.1-2.3,0.1-4.2
		v-3.4c0-3,0-3.6,0-4.2c0-0.7-0.2-1-0.8-1.1c-0.2,0-0.5-0.1-0.7-0.1c-0.1,0-0.2,0-0.2-0.1c0-0.1,0.1-0.2,0.3-0.2
		c0.9,0,2.1,0.1,2.2,0.1s1.3-0.1,1.9-0.1c0.2,0,0.3,0,0.3,0.2c0,0.1-0.1,0.1-0.2,0.1c-0.1,0-0.3,0-0.5,0.1c-0.5,0.1-0.7,0.4-0.7,1.1
		c0,0.6,0,1.2,0,4.2V47c0,0.1,0.1,0.1,0.1,0.1h8.2c0.1,0,0.1,0,0.1-0.1v-0.4c0-3,0-3.6,0-4.2c0-0.7-0.2-1-0.8-1.1
		c-0.2,0-0.5-0.1-0.7-0.1c-0.1,0-0.2,0-0.2-0.1c0-0.1,0.1-0.2,0.3-0.2c0.9,0,2.1,0.1,2.2,0.1s1.3-0.1,1.9-0.1c0.2,0,0.3,0,0.3,0.2
		c0,0.1-0.1,0.1-0.2,0.1c-0.1,0-0.3,0-0.5,0.1c-0.5,0.1-0.7,0.4-0.7,1.1c0,0.6,0,1.2,0,4.2V50z"/>
	<path class="st0" d="M219.1,50c0,1.9,0,3.4,0.1,4.2c0.1,0.6,0.2,1,0.8,1.1c0.3,0,0.7,0.1,0.9,0.1c0.1,0,0.2,0.1,0.2,0.1
		c0,0.1-0.1,0.2-0.3,0.2c-1.1,0-2.3-0.1-2.4-0.1c-0.1,0-1.3,0.1-1.9,0.1c-0.2,0-0.3,0-0.3-0.2c0-0.1,0-0.1,0.2-0.1
		c0.2,0,0.4,0,0.6-0.1c0.4-0.1,0.5-0.5,0.6-1.1c0.1-0.8,0.1-2.3,0.1-4.2v-3.4c0-3,0-3.6,0-4.2c0-0.7-0.2-1-0.7-1.1
		c-0.2-0.1-0.5-0.1-0.6-0.1c-0.1,0-0.2,0-0.2-0.1c0-0.1,0.1-0.2,0.3-0.2c0.6,0,1.9,0.1,2,0.1c0.1,0,1.3-0.1,1.9-0.1
		c0.2,0,0.3,0,0.3,0.2c0,0.1-0.1,0.1-0.2,0.1c-0.1,0-0.3,0-0.5,0.1c-0.5,0.1-0.7,0.4-0.7,1.1c0,0.6,0,1.2,0,4.2V50z"/>
	<path class="st0" d="M227.5,48.3c0,0.1,0,0.2,0.1,0.2c0.3,0.2,1.2,0.3,2,0.3c0.5,0,1-0.1,1.5-0.4c0.7-0.5,1.2-1.5,1.2-3
		c0-2.4-1.3-3.9-3.4-3.9c-0.6,0-1.1,0.1-1.3,0.1c-0.1,0-0.2,0.1-0.2,0.2V48.3z M226,46.6c0-3,0-3.6,0-4.2c0-0.7-0.2-1-0.8-1.1
		c-0.2,0-0.5-0.1-0.7-0.1c-0.1,0-0.2,0-0.2-0.1c0-0.1,0.1-0.2,0.3-0.2c0.9,0,2.1,0.1,2.2,0.1c0.2,0,1.7-0.1,2.3-0.1
		c1.2,0,2.5,0.1,3.5,0.9c0.5,0.3,1.3,1.3,1.3,2.6c0,1.4-0.6,2.9-2.3,4.5c1.6,2,2.9,3.8,4,5c1,1.1,1.9,1.3,2.4,1.4
		c0.4,0.1,0.6,0.1,0.8,0.1c0.1,0,0.2,0.1,0.2,0.1c0,0.1-0.1,0.2-0.5,0.2h-1.4c-1.1,0-1.6-0.1-2.1-0.4c-0.8-0.4-1.5-1.4-2.6-2.9
		c-0.8-1.1-1.7-2.4-2.1-2.9c-0.1-0.1-0.1-0.1-0.3-0.1l-2.4,0c-0.1,0-0.1,0.1-0.1,0.2V50c0,1.9,0,3.4,0.1,4.2c0.1,0.6,0.2,1,0.8,1.1
		c0.3,0,0.7,0.1,0.9,0.1c0.1,0,0.2,0.1,0.2,0.1c0,0.1-0.1,0.2-0.3,0.2c-1.1,0-2.3-0.1-2.4-0.1c0,0-1.2,0.1-1.8,0.1
		c-0.2,0-0.3,0-0.3-0.2c0-0.1,0-0.1,0.2-0.1c0.2,0,0.4,0,0.6-0.1c0.4-0.1,0.5-0.5,0.6-1.1c0.1-0.8,0.1-2.3,0.1-4.2V46.6z"/>
	<path class="st0" d="M240.6,46.6c0-3,0-3.6,0-4.2c0-0.7-0.2-1-0.8-1.1c-0.2,0-0.5-0.1-0.7-0.1c-0.1,0-0.2,0-0.2-0.1
		c0-0.1,0.1-0.2,0.3-0.2c0.4,0,1,0,1.4,0l0.8,0c0.1,0,4,0,4.4,0c0.4,0,0.7-0.1,0.8-0.1c0.1,0,0.2-0.1,0.3-0.1c0.1,0,0.1,0.1,0.1,0.2
		c0,0.1-0.1,0.4-0.2,0.9c0,0.2-0.1,1-0.1,1.3c0,0.1-0.1,0.2-0.1,0.2c-0.1,0-0.2-0.1-0.2-0.3c0-0.1,0-0.5-0.1-0.7
		c-0.1-0.3-0.3-0.5-1.4-0.7c-0.3,0-2.4-0.1-2.7-0.1c-0.1,0-0.1,0.1-0.1,0.2v5.4c0,0.1,0,0.2,0.1,0.2c0.3,0,2.6,0,3.1,0
		c0.5,0,0.7-0.1,0.9-0.3c0.1-0.2,0.2-0.3,0.3-0.3c0.1,0,0.1,0,0.1,0.2c0,0.1-0.1,0.4-0.2,1.1c0,0.4-0.1,1.1-0.1,1.2
		c0,0.2,0,0.4-0.1,0.4c-0.1,0-0.1-0.1-0.1-0.2c0-0.2,0-0.4-0.1-0.6c-0.1-0.3-0.3-0.6-1-0.7c-0.5-0.1-2.4-0.1-2.8-0.1
		c-0.1,0-0.1,0.1-0.1,0.1V50c0,0.7,0,2.9,0,3.3c0.1,1.3,0.3,1.6,2.2,1.6c0.5,0,1.4,0,1.9-0.2c0.5-0.2,0.7-0.6,0.9-1.4
		c0-0.2,0.1-0.3,0.2-0.3c0.1,0,0.1,0.2,0.1,0.3c0,0.2-0.2,1.5-0.3,1.9c-0.1,0.5-0.3,0.5-1,0.5c-1.5,0-2.5,0-3.3-0.1
		c-0.8,0-1.2-0.1-1.5-0.1c0,0-0.4,0-0.8,0c-0.4,0-0.8,0-1.1,0c-0.2,0-0.3,0-0.3-0.2c0-0.1,0-0.1,0.2-0.1c0.2,0,0.4,0,0.6-0.1
		c0.4-0.1,0.5-0.5,0.6-1.1c0.1-0.8,0.1-2.3,0.1-4.2V46.6z"/>
	<path class="st0" d="M108.7,77.8c-1.9-1.7-2.3-3.9-2.3-5.7c0-1.3,0.4-3.6,2.2-5.3c1.2-1.2,2.9-2.1,5.9-2.1c0.8,0,1.9,0.1,2.8,0.2
		c0.7,0.1,1.4,0.3,2,0.3c0.2,0,0.3,0.1,0.3,0.2c0,0.2-0.1,0.4-0.1,1.1c0,0.6,0,1.7-0.1,2c0,0.3-0.1,0.4-0.2,0.4
		c-0.1,0-0.2-0.1-0.2-0.4c0-0.8-0.3-1.6-0.8-2c-0.7-0.6-2.2-1.1-3.9-1.1c-2.6,0-3.8,0.8-4.5,1.4c-1.4,1.4-1.7,3.1-1.7,5.1
		c0,3.7,2.9,7.1,7,7.1c1.5,0,2.6-0.2,3.4-1c0.4-0.4,0.7-1.3,0.7-1.6c0-0.2,0.1-0.3,0.2-0.3c0.1,0,0.1,0.1,0.1,0.3
		c0,0.1-0.2,1.8-0.4,2.5c-0.1,0.4-0.2,0.4-0.5,0.6c-0.8,0.3-2.2,0.4-3.5,0.4C112.2,79.9,110.2,79.2,108.7,77.8"/>
	<path class="st0" d="M125.8,74.1c0,2.9,0.1,4.1,0.4,4.4c0.3,0.3,0.8,0.4,2.3,0.4c1,0,1.9,0,2.3-0.6c0.3-0.3,0.4-0.8,0.5-1.2
		c0-0.2,0.1-0.3,0.2-0.3c0.1,0,0.1,0.1,0.1,0.3c0,0.2-0.1,1.4-0.3,1.9c-0.1,0.4-0.2,0.5-1.2,0.5c-1.4,0-2.4,0-3.2-0.1
		c-0.8,0-1.4-0.1-2-0.1c-0.1,0-0.4,0-0.8,0c-0.4,0-0.8,0-1.1,0c-0.2,0-0.3,0-0.3-0.2c0-0.1,0-0.1,0.2-0.1c0.2,0,0.4,0,0.6-0.1
		c0.4-0.1,0.5-0.5,0.6-1.1c0.1-0.8,0.1-2.3,0.1-4.2v-3.4c0-3,0-3.6,0-4.2c0-0.7-0.2-1-0.8-1.1c-0.2,0-0.5-0.1-0.7-0.1
		c-0.1,0-0.2,0-0.2-0.1c0-0.1,0.1-0.2,0.3-0.2c0.9,0,2.1,0.1,2.2,0.1s1.5-0.1,2.1-0.1c0.2,0,0.3,0,0.3,0.2c0,0.1-0.1,0.1-0.2,0.1
		c-0.1,0-0.4,0-0.6,0.1c-0.6,0.1-0.7,0.4-0.8,1.1c0,0.6,0,1.2,0,4.2V74.1z"/>
	<path class="st0" d="M137.3,74c0,1.9,0,3.4,0.1,4.2c0.1,0.6,0.2,1,0.8,1.1c0.3,0,0.7,0.1,0.9,0.1c0.1,0,0.2,0.1,0.2,0.1
		c0,0.1-0.1,0.2-0.3,0.2c-1.1,0-2.3-0.1-2.4-0.1c-0.1,0-1.3,0.1-1.9,0.1c-0.2,0-0.3,0-0.3-0.2c0-0.1,0-0.1,0.2-0.1
		c0.2,0,0.4,0,0.6-0.1c0.4-0.1,0.5-0.5,0.6-1.1c0.1-0.8,0.1-2.3,0.1-4.2v-3.4c0-3,0-3.6,0-4.2c0-0.7-0.2-1-0.7-1.1
		c-0.2-0.1-0.5-0.1-0.6-0.1c-0.1,0-0.2,0-0.2-0.1c0-0.1,0.1-0.2,0.3-0.2c0.6,0,1.9,0.1,2,0.1c0.1,0,1.3-0.1,1.9-0.1
		c0.2,0,0.3,0,0.3,0.2c0,0.1-0.1,0.1-0.2,0.1c-0.1,0-0.3,0-0.5,0.1c-0.5,0.1-0.7,0.4-0.7,1.1c0,0.6,0,1.2,0,4.2V74z"/>
	<path class="st0" d="M144.7,77c0,1.6,0.2,2.1,0.8,2.2c0.4,0.1,0.8,0.1,1,0.1c0.1,0,0.2,0,0.2,0.1c0,0.1-0.1,0.2-0.3,0.2
		c-1.1,0-1.9-0.1-2.1-0.1c-0.2,0-1,0.1-1.9,0.1c-0.2,0-0.3,0-0.3-0.2c0-0.1,0.1-0.1,0.2-0.1c0.2,0,0.5,0,0.8-0.1
		c0.5-0.1,0.6-0.7,0.6-2.5l0-11.1c0-0.8,0.1-1,0.2-1c0.2,0,0.5,0.4,0.7,0.6c0.3,0.3,3.2,3.5,6.2,6.7c1.9,2.1,4,4.4,4.7,5.1l-0.2-9.9
		c0-1.3-0.2-1.7-0.8-1.8c-0.3-0.1-0.8-0.1-0.9-0.1c-0.1,0-0.2-0.1-0.2-0.1c0-0.1,0.2-0.1,0.4-0.1c0.9,0,1.8,0.1,2,0.1
		c0.2,0,0.9-0.1,1.6-0.1c0.2,0,0.3,0,0.3,0.1c0,0.1-0.1,0.1-0.2,0.1c-0.1,0-0.2,0-0.5,0.1c-0.6,0.1-0.7,0.6-0.7,1.7l0,11.4
		c0,1.3,0,1.4-0.2,1.4c-0.2,0-0.4-0.2-1.4-1.2c-0.2-0.2-3-3-5.1-5.3c-2.2-2.4-4.4-4.9-5.1-5.6L144.7,77z"/>
	<path class="st0" d="M164.2,74c0,1.9,0,3.4,0.1,4.2c0.1,0.6,0.2,1,0.8,1.1c0.3,0,0.7,0.1,0.9,0.1c0.1,0,0.2,0.1,0.2,0.1
		c0,0.1-0.1,0.2-0.3,0.2c-1.1,0-2.3-0.1-2.4-0.1c-0.1,0-1.3,0.1-1.9,0.1c-0.2,0-0.3,0-0.3-0.2c0-0.1,0-0.1,0.2-0.1
		c0.2,0,0.4,0,0.6-0.1c0.4-0.1,0.5-0.5,0.6-1.1c0.1-0.8,0.1-2.3,0.1-4.2v-3.4c0-3,0-3.6,0-4.2c0-0.7-0.2-1-0.7-1.1
		c-0.2-0.1-0.5-0.1-0.6-0.1c-0.1,0-0.2,0-0.2-0.1c0-0.1,0.1-0.2,0.3-0.2c0.6,0,1.9,0.1,2,0.1c0.1,0,1.3-0.1,1.9-0.1
		c0.2,0,0.3,0,0.3,0.2c0,0.1-0.1,0.1-0.2,0.1c-0.1,0-0.3,0-0.5,0.1c-0.5,0.1-0.7,0.4-0.7,1.1c0,0.6,0,1.2,0,4.2V74z"/>
	<path class="st0" d="M170.9,77.8c-1.9-1.7-2.3-3.9-2.3-5.7c0-1.3,0.4-3.6,2.2-5.3c1.2-1.2,2.9-2.1,5.9-2.1c0.8,0,1.9,0.1,2.8,0.2
		c0.7,0.1,1.4,0.3,2,0.3c0.2,0,0.3,0.1,0.3,0.2c0,0.2-0.1,0.4-0.1,1.1c0,0.6,0,1.7-0.1,2c0,0.3-0.1,0.4-0.2,0.4
		c-0.1,0-0.2-0.1-0.2-0.4c0-0.8-0.3-1.6-0.8-2c-0.7-0.6-2.2-1.1-3.9-1.1c-2.6,0-3.8,0.8-4.5,1.4c-1.4,1.4-1.7,3.1-1.7,5.1
		c0,3.7,2.9,7.1,7,7.1c1.5,0,2.6-0.2,3.4-1c0.4-0.4,0.7-1.3,0.7-1.6c0-0.2,0.1-0.3,0.2-0.3c0.1,0,0.1,0.1,0.1,0.3
		c0,0.1-0.2,1.8-0.4,2.5c-0.1,0.4-0.2,0.4-0.5,0.6c-0.8,0.3-2.2,0.4-3.5,0.4C174.4,79.9,172.5,79.2,170.9,77.8"/>
</g>
</svg>
