<?xml version="1.0" encoding="utf-8"?>
<!-- Generator: Adobe Illustrator 22.1.0, SVG Export Plug-In . SVG Version: 6.00 Build 0)  -->
<svg version="1.1" id="Layer_1" xmlns="http://www.w3.org/2000/svg" xmlns:xlink="http://www.w3.org/1999/xlink" x="0px" y="0px"
	 viewBox="0 0 45.9 46.4" style="enable-background:new 0 0 45.9 46.4;" xml:space="preserve">
<style type="text/css">
	.st0{clip-path:url(#SVGID_2_);fill:#FFFFFF;}
	.st1{clip-path:url(#SVGID_4_);fill:#FFFFFF;}
	.st2{clip-path:url(#SVGID_6_);fill:#FFFFFF;}
</style>
<g>
	<g>
		<defs>
			<rect id="SVGID_1_" x="6.4" y="6.9" width="32.5" height="32.5"/>
		</defs>
		<clipPath id="SVGID_2_">
			<use xlink:href="#SVGID_1_"  style="overflow:visible;"/>
		</clipPath>
		<path class="st0" d="M14.5,35.8c-5.7-5.7-5.7-15.1,0-20.8s15.1-5.7,20.8,0c1.7,1.7,2.9,3.8,3.6,6c-0.5-3.4-2-6.7-4.6-9.3
			c-6.4-6.4-16.7-6.4-23.1,0s-6.4,16.7,0,23.1c2.6,2.6,5.9,4.2,9.3,4.6C18.3,38.7,16.2,37.5,14.5,35.8"/>
	</g>
	<g>
		<defs>
			<rect id="SVGID_3_" x="6.4" y="6.9" width="32.5" height="32.5"/>
		</defs>
		<clipPath id="SVGID_4_">
			<use xlink:href="#SVGID_3_"  style="overflow:visible;"/>
		</clipPath>
		<path class="st1" d="M21.6,13.4c-6,3.1-8.4,10.4-5.3,16.4s10.4,8.4,16.4,5.3c1.8-0.9,3.3-2.2,4.4-3.8c-1.2,2.6-3.3,4.8-6,6.2
			c-6.7,3.4-14.8,0.8-18.3-5.9S12,16.8,18.7,13.3c2.7-1.4,5.7-1.8,8.5-1.3C25.3,12,23.4,12.4,21.6,13.4"/>
	</g>
	<g>
		<defs>
			<rect id="SVGID_5_" x="6.4" y="6.9" width="32.5" height="32.5"/>
		</defs>
		<clipPath id="SVGID_6_">
			<use xlink:href="#SVGID_5_"  style="overflow:visible;"/>
		</clipPath>
		<path class="st2" d="M35.4,18.6c2.3,4.9,0.1,10.8-4.8,13.1s-10.8,0.1-13.1-4.8c-0.7-1.5-1-3.1-0.9-4.6c-0.5,2.2-0.3,4.7,0.8,6.9
			c2.5,5.5,9,7.9,14.5,5.4s7.9-9,5.4-14.5c-1-2.2-2.7-4-4.8-5.1C33.7,15.8,34.7,17.1,35.4,18.6"/>
	</g>
</g>
</svg>
