<?xml version="1.0" encoding="utf-8"?>
<!-- Generator: Adobe Illustrator 23.0.1, SVG Export Plug-In . SVG Version: 6.00 Build 0)  -->
<svg version="1.1" id="Layer_1" xmlns="http://www.w3.org/2000/svg" xmlns:xlink="http://www.w3.org/1999/xlink" x="0px" y="0px"
	 viewBox="0 0 382.5 512" style="enable-background:new 0 0 382.5 512;" xml:space="preserve">
<style type="text/css">
	.st0{fill:#CCA968;}
</style>
<g>
	<path class="st0" d="M182.1,44.8L159.8,6H48.7v38.8H12.3v354.3L119.9,506h250.4V44.8H182.1z M63.9,140.5c3.3-4.3,9-4.7,12.7-0.9
		l17.9,18.2V75.2c0-5.7,4-10.4,9-10.4s9,4.6,9,10.4v82.6l17.9-18.2c3.7-3.8,9.4-3.4,12.7,0.9c3.3,4.3,3,10.8-0.8,14.6l-32.8,33.4
		l0,0l-0.1,0.1c-0.2,0.2-0.4,0.4-0.7,0.6c-0.1,0.1-0.2,0.1-0.2,0.2c-0.2,0.1-0.3,0.3-0.5,0.4c-0.1,0.1-0.2,0.1-0.3,0.2
		c-0.2,0.1-0.3,0.2-0.5,0.3c-0.1,0.1-0.2,0.1-0.3,0.1c-0.2,0.1-0.4,0.2-0.5,0.2s-0.2,0.1-0.3,0.1c-0.2,0.1-0.4,0.1-0.6,0.2
		c-0.1,0-0.2,0.1-0.3,0.1c-0.2,0-0.4,0.1-0.6,0.1c-0.1,0-0.2,0-0.2,0c-0.3,0-0.6,0.1-0.9,0.1l0,0l0,0c-0.3,0-0.6,0-0.9-0.1
		c-0.1,0-0.2,0-0.2,0c-0.2,0-0.4-0.1-0.6-0.1c-0.1,0-0.2,0-0.3-0.1c-0.2-0.1-0.4-0.1-0.6-0.2c-0.1,0-0.2-0.1-0.3-0.1
		c-0.2-0.1-0.4-0.1-0.5-0.2c-0.1,0-0.2-0.1-0.3-0.1c-0.2-0.1-0.3-0.2-0.5-0.3c-0.1-0.1-0.2-0.1-0.3-0.2c-0.2-0.1-0.4-0.3-0.5-0.4
		c-0.1-0.1-0.2-0.1-0.2-0.2c-0.2-0.2-0.5-0.4-0.7-0.6l-0.1-0.1l0,0l-32.8-33.4C60.9,151.3,60.6,144.8,63.9,140.5z M351.2,486.9
		H128.9v-97.1H31.4V63.9h17.3v121.5l55.5,50.3l55.5-50.3V63.9h191.4v423H351.2z"/>
	<rect x="191.3" y="114.5" class="st0" width="132.6" height="21.3"/>
	<rect x="191.3" y="187.1" class="st0" width="132.6" height="21.3"/>
	<rect x="56.9" y="332.4" class="st0" width="267" height="21.3"/>
	<rect x="56.9" y="259.7" class="st0" width="267" height="21.3"/>
	<path class="st0" d="M190.2,394.6h-22.4v58.5h9.8v-22.2h12.7c6.5,0,11.5-1.7,15.2-5s5.5-7.7,5.5-13.2c0-5.4-1.8-9.8-5.5-13.2
		C201.7,396.2,196.7,394.6,190.2,394.6z M198.4,420.2c-1.8,1.9-4.5,2.9-8.2,2.9h-12.7v-20.7h12.7c3.6,0,6.3,1,8.2,3
		c1.8,2,2.7,4.5,2.7,7.4C201.1,415.8,200.2,418.2,198.4,420.2z"/>
	<path class="st0" d="M242,394.6h-19.3v58.5H242c7.4,0,13.5-2.3,18.1-6.9c4.6-4.6,7-10.6,7-17.9v-8.9c0-7.3-2.3-13.3-7-17.9
		C255.5,396.9,249.4,394.6,242,394.6z M257.3,428.3c0,5-1.4,9.1-4.1,12.2c-2.8,3.2-6.5,4.8-11.2,4.8h-9.6v-42.9h9.6
		c4.7,0,8.4,1.6,11.2,4.8c2.8,3.2,4.1,7.2,4.1,12.2V428.3z"/>
	<polygon class="st0" points="280.3,453.1 290.1,453.1 290.1,428.1 313.7,428.1 313.7,420.3 290.1,420.3 290.1,402.4 317.8,402.4 
		317.8,394.6 280.3,394.6 	"/>
</g>
</svg>
